<?xml version="1.0" standalone="no"?>
<!DOCTYPE svg PUBLIC "-//W3C//DTD SVG 20010904//EN"
 "http://www.w3.org/TR/2001/REC-SVG-20010904/DTD/svg10.dtd">
<svg version="1.0" xmlns="http://www.w3.org/2000/svg"
 width="3375.000000pt" height="3375.000000pt" viewBox="0 0 3375.000000 3375.000000"
 preserveAspectRatio="xMidYMid meet">

<g transform="translate(0.000000,3375.000000) scale(0.100000,-0.100000)"
fill="#000000" stroke="none">
<path d="M0 16875 l0 -16875 16875 0 16875 0 0 16875 0 16875 -16875 0 -16875
0 0 -16875z m16796 11130 c102 -30 139 -94 147 -261 l6 -111 -246 -6 c-136 -3
-249 -4 -252 -2 -2 3 -6 90 -9 194 l-5 190 74 4 c178 8 237 6 285 -8z m1286
-68 c70 -29 133 -117 144 -199 3 -24 -4 -115 -15 -203 -11 -87 -17 -162 -13
-166 4 -3 54 -12 112 -18 58 -7 120 -15 139 -18 l34 -6 -7 -60 c-9 -88 -25
-132 -65 -178 -49 -58 -99 -79 -192 -79 l-75 0 -67 -537 c-37 -296 -67 -551
-67 -566 0 -40 24 -81 57 -96 15 -7 70 -19 122 -27 51 -7 95 -14 96 -16 4 -3
-29 -274 -40 -335 l-6 -33 -64 0 c-153 0 -460 55 -545 98 -91 45 -140 136
-140 256 0 52 264 2194 274 2222 5 14 269 -19 318 -39z m-2795 -88 c59 -29
120 -101 138 -163 7 -28 24 -113 36 -188 20 -123 24 -138 42 -138 10 0 75 9
144 21 68 12 126 19 129 17 2 -3 9 -41 16 -84 8 -59 8 -90 -1 -120 -24 -89
-93 -154 -185 -178 -32 -9 -60 -17 -62 -18 -8 -9 179 -1106 192 -1126 9 -13
32 -30 51 -39 32 -13 46 -13 135 2 55 10 101 15 104 12 10 -10 64 -361 57
-367 -12 -11 -253 -57 -365 -71 -54 -6 -138 -10 -186 -7 -74 3 -96 9 -136 32
-60 35 -100 91 -126 175 -20 62 -374 2211 -366 2219 2 1 50 11 107 21 145 26
222 26 276 0z m1519 -404 c100 -30 133 -85 144 -239 11 -143 35 -1704 27
-1712 -3 -4 -115 -7 -249 -8 l-243 -1 -17 895 c-9 492 -17 934 -17 982 l-1 87
73 4 c175 8 235 6 283 -8z m2639 -325 c125 -43 229 -81 231 -82 1 -2 -93 -282
-211 -622 -118 -340 -219 -643 -225 -672 -33 -157 54 -280 241 -339 177 -56
303 -13 376 129 13 26 105 283 204 570 99 286 191 540 205 563 36 62 76 87
151 91 56 4 80 -2 212 -48 l150 -52 -36 -101 c-19 -56 -109 -314 -198 -573
-187 -539 -203 -583 -257 -679 -111 -197 -241 -299 -418 -326 -92 -14 -298 -7
-395 15 -216 47 -394 142 -535 285 -91 91 -135 153 -163 229 -32 84 -31 312 1
431 13 46 110 336 217 645 210 608 213 616 219 616 2 0 106 -36 231 -80z
m-5425 -226 c146 -43 280 -147 359 -280 22 -39 41 -75 41 -81 0 -5 -75 -39
-167 -74 -146 -56 -177 -64 -235 -64 -53 0 -72 4 -95 22 -89 70 -105 77 -167
81 -157 10 -387 -104 -415 -205 -20 -71 31 -136 123 -157 56 -14 182 -6 356
20 209 31 453 42 557 25 194 -33 326 -160 393 -376 97 -316 -49 -584 -430
-788 -219 -118 -431 -177 -630 -177 -90 0 -124 5 -192 26 -137 43 -200 85
-286 188 -38 45 -127 204 -119 212 1 1 104 42 227 89 124 48 230 89 236 91 6
3 16 -6 22 -20 19 -42 85 -108 127 -127 118 -54 408 18 523 130 97 94 69 223
-54 251 -79 19 -224 11 -409 -22 -224 -39 -428 -45 -535 -14 -236 68 -375 253
-387 517 -6 120 7 183 60 284 41 77 170 208 265 270 136 87 322 161 477 190
98 18 276 13 355 -11z m7814 -180 c61 -37 124 -79 140 -93 66 -60 95 -186 61
-267 -8 -19 -51 -95 -95 -169 -44 -73 -80 -135 -80 -138 0 -2 55 -37 123 -77
67 -40 124 -74 126 -76 7 -6 -59 -110 -91 -143 -75 -77 -192 -94 -290 -42
l-55 28 -286 -478 c-158 -263 -290 -491 -293 -507 -10 -50 19 -88 114 -149 48
-31 89 -57 91 -59 3 -3 -96 -174 -166 -287 l-24 -38 -104 55 c-108 57 -247
146 -347 223 -120 92 -155 227 -91 358 19 39 1147 1924 1152 1925 2 0 53 -30
115 -66z m-9839 -863 c108 -30 208 -95 320 -206 81 -81 169 -195 463 -596 199
-274 362 -499 362 -502 0 -8 -186 -144 -238 -174 -85 -50 -192 -42 -261 21
-13 11 -169 220 -347 463 -183 250 -341 455 -363 472 -132 105 -298 76 -450
-76 -110 -110 -126 -198 -61 -328 17 -33 197 -287 400 -565 204 -277 369 -507
368 -511 -2 -4 -92 -73 -202 -153 l-199 -145 -17 22 c-117 153 -715 980 -747
1032 -90 151 -140 329 -130 465 17 214 139 403 376 581 155 117 317 194 459
219 63 12 188 3 267 -19z m10987 -701 c270 -80 578 -362 677 -620 61 -159 65
-315 12 -481 -93 -289 -404 -650 -702 -813 -347 -190 -702 -112 -1025 225 -88
93 -142 166 -187 255 -60 120 -72 173 -72 324 1 129 2 139 36 238 120 340 507
740 834 859 126 46 296 51 427 13z m-13222 -310 c19 -10 68 -49 108 -87 l74
-68 -168 -183 -167 -182 -28 22 c-61 49 -257 233 -256 240 4 17 194 220 229
244 66 46 135 51 208 14z m411 -381 c21 -10 183 -152 361 -316 178 -163 472
-433 655 -601 l332 -305 -31 -36 c-139 -159 -303 -329 -312 -324 -8 6 -1236
1131 -1394 1279 l-52 49 109 116 c61 64 123 124 138 134 58 38 125 40 194 4z
m-262 -1816 c-485 -529 -933 -1151 -1291 -1793 -693 -1241 -1096 -2632 -1178
-4070 -13 -225 -13 -836 0 -1055 17 -286 62 -730 86 -847 l6 -28 -75 0 -75 0
-6 33 c-28 156 -72 626 -86 927 -115 2469 732 4896 2353 6748 l98 112 96 0 97
0 -25 -27z m14241 -60 c705 -819 1209 -1622 1617 -2573 331 -770 562 -1612
678 -2465 l25 -185 0 -1110 c0 -931 -2 -1128 -15 -1227 -24 -190 -15 -173 -96
-173 -63 0 -69 2 -69 20 0 11 11 111 25 223 96 781 94 1572 -6 2362 -238 1883
-1049 3664 -2317 5088 l-113 127 98 0 98 0 75 -87z m-11434 -1090 c94 -104
230 -249 364 -388 53 -55 285 -300 515 -545 230 -245 455 -483 500 -530 45
-47 182 -191 305 -320 123 -129 271 -284 330 -345 295 -305 1285 -1348 1668
-1757 l202 -216 50 33 c45 30 146 75 170 75 5 0 11 4 14 8 5 9 -7 578 -24
1064 -5 167 -14 510 -20 763 -10 458 -12 534 -30 1095 -10 338 -9 1045 2 1056
5 4 673 2 1485 -5 813 -6 1876 -11 2363 -11 487 0 895 -3 907 -6 22 -6 21 -8
-23 -64 -98 -125 -681 -688 -1312 -1268 -360 -331 -1505 -1414 -1967 -1862
-82 -80 -195 -188 -250 -240 -55 -53 -197 -187 -315 -300 -118 -113 -246 -235
-284 -271 l-70 -67 45 -53 c56 -67 84 -115 109 -187 l19 -57 148 3 c81 1 306
7 498 12 193 5 490 12 660 15 171 3 461 10 645 15 1068 29 1886 38 1904 19 3
-2 0 -587 -5 -1299 -6 -712 -14 -1782 -17 -2377 -4 -595 -10 -1085 -14 -1089
-29 -28 -427 372 -1153 1161 -342 371 -584 632 -724 780 -42 44 -139 147 -216
230 -77 82 -180 192 -230 245 -866 914 -1668 1755 -1677 1758 -4 2 -20 -5 -35
-16 -38 -27 -122 -67 -158 -77 -16 -4 -64 -11 -105 -14 l-75 -6 3 -185 c2
-199 11 -516 42 -1595 28 -989 40 -1490 40 -1726 l0 -206 -31 -7 c-41 -8
-4547 -8 -4587 0 -28 6 -30 8 -21 32 5 13 42 55 82 91 39 36 205 192 367 347
162 154 471 446 685 649 215 203 451 428 525 500 514 496 1855 1777 2307 2204
l162 153 -18 37 c-31 61 -44 112 -50 196 l-6 80 -185 -3 c-334 -5 -1217 -27
-1685 -42 -165 -6 -550 -14 -855 -20 -305 -5 -679 -12 -831 -16 l-276 -6 -6
109 c-8 129 1 3965 9 4301 6 231 6 232 28 232 16 0 48 -27 102 -87z m-1826
-4313 c19 -6 13 -8 -30 -9 -65 -1 -105 -22 -146 -77 -60 -78 -24 -210 89 -324
61 -61 104 -88 210 -130 159 -63 305 -85 662 -100 350 -13 536 -41 735 -107
96 -32 219 -93 296 -148 68 -49 200 -185 227 -236 l19 -34 -28 35 c-55 71
-164 169 -238 215 -212 132 -457 195 -831 215 -562 29 -617 36 -772 86 -141
46 -222 91 -294 164 -84 85 -122 161 -127 251 -5 74 7 106 56 152 49 46 116
65 172 47z m1266 -899 c254 -52 463 -172 594 -341 l34 -45 -54 51 c-302 279
-771 361 -1278 224 -194 -53 -300 -149 -290 -260 6 -62 39 -104 112 -140 66
-33 110 -38 144 -14 12 8 22 13 22 9 0 -14 -69 -45 -101 -45 -47 0 -114 24
-156 56 -75 57 -95 166 -47 262 66 133 272 219 634 266 76 9 288 -3 386 -23z
m13573 -2996 c284 -63 615 -206 870 -375 410 -271 612 -579 628 -956 9 -215
-40 -433 -151 -665 -197 -414 -454 -655 -791 -746 -89 -24 -118 -26 -275 -27
-134 -1 -195 3 -260 17 -196 42 -420 122 -615 220 -490 245 -788 550 -882 904
-23 85 -26 119 -27 253 0 134 4 170 27 268 47 200 145 424 267 605 190 284
432 458 715 513 95 18 393 12 494 -11z m-17349 5 c139 -15 241 -44 365 -105
176 -86 310 -205 448 -397 173 -242 287 -525 317 -788 31 -259 -39 -503 -206
-723 -61 -82 -239 -251 -253 -242 -4 2 -82 158 -175 348 l-168 344 36 55 c105
158 111 320 18 508 -26 53 -57 96 -107 145 -95 96 -166 126 -316 133 -177 8
-325 -31 -574 -152 -170 -83 -231 -120 -339 -207 -150 -120 -246 -290 -246
-434 1 -125 72 -301 161 -399 67 -74 134 -117 248 -161 112 -42 159 -73 201
-131 30 -42 275 -534 268 -539 -10 -7 -140 -26 -242 -35 -205 -18 -391 18
-581 113 -115 57 -188 112 -291 219 -110 116 -167 200 -255 382 -119 246 -170
440 -170 654 0 252 65 444 221 650 281 373 912 714 1410 761 121 12 125 12
230 1z m12015 -676 c85 -233 314 -461 600 -599 184 -88 493 -164 617 -151 117
12 194 70 205 155 7 52 -33 138 -85 181 -31 26 -44 31 -79 28 -50 -4 -53 -1
-17 12 50 19 140 -22 182 -85 19 -27 22 -45 22 -132 0 -95 -2 -103 -26 -133
-47 -56 -116 -82 -227 -88 -116 -6 -206 8 -369 54 -248 71 -427 174 -590 340
-146 149 -220 281 -262 467 -11 49 1 29 29 -49z m-157 -198 c120 -257 408
-503 842 -721 156 -78 295 -160 380 -223 168 -125 294 -273 329 -387 70 -227
0 -394 -167 -395 -51 0 -122 26 -137 50 -3 5 9 1 27 -9 71 -41 148 -35 209 16
44 38 59 80 59 170 -1 167 -85 306 -280 462 -117 92 -171 126 -370 231 -308
162 -460 259 -609 391 -194 171 -328 393 -355 589 -5 35 -1 28 17 -31 13 -42
38 -106 55 -143z m2831 -997 c61 -21 70 -27 289 -207 90 -74 167 -131 171
-126 4 5 65 80 135 167 70 86 130 157 134 157 4 0 43 -31 87 -68 118 -100 165
-186 165 -305 0 -77 -30 -158 -84 -226 l-44 -56 610 -495 c335 -272 631 -507
656 -522 54 -32 87 -35 139 -13 49 21 62 33 155 148 43 53 83 97 88 97 6 0
379 -299 419 -336 11 -10 -214 -299 -363 -463 -194 -215 -283 -268 -436 -259
-63 4 -92 11 -155 41 -94 45 -2 -27 -1163 915 -527 427 -1064 863 -1194 967
-130 105 -237 193 -237 197 -2 13 259 327 288 348 95 67 218 81 340 39z
m-12989 -414 c215 -69 416 -211 618 -437 296 -332 434 -595 449 -854 9 -166
-35 -308 -138 -448 -61 -82 -877 -829 -991 -907 -486 -333 -974 -260 -1510
225 -233 212 -379 429 -439 656 -32 120 -32 293 -1 404 83 290 345 554 642
648 64 19 95 23 205 22 112 -1 143 -5 220 -28 195 -59 379 -173 661 -409 188
-157 234 -189 338 -238 95 -44 178 -45 239 -3 135 96 110 267 -71 484 -162
194 -302 269 -442 237 l-35 -8 -235 256 c-129 141 -235 261 -235 267 0 29 219
129 335 154 105 22 286 12 390 -21z m2125 -785 c216 -151 249 -190 275 -315
15 -74 7 -154 -24 -220 -12 -27 -82 -134 -154 -236 -73 -103 -132 -191 -132
-195 1 -5 75 -61 166 -124 91 -63 168 -119 171 -123 2 -4 -14 -37 -38 -73 -90
-139 -181 -203 -300 -212 -88 -6 -156 11 -230 59 -33 22 -64 40 -69 42 -8 2
-906 -1267 -934 -1321 -9 -17 -16 -49 -16 -72 0 -74 29 -111 160 -206 66 -47
120 -88 120 -90 0 -2 -70 -103 -156 -224 l-156 -221 -46 27 c-251 144 -596
413 -664 518 -88 135 -89 273 -5 431 18 33 403 587 856 1230 1057 1500 1012
1437 1020 1433 3 -2 74 -50 156 -108z m10871 -196 c229 -47 446 -186 651 -417
72 -81 1133 -1412 1133 -1421 0 -10 -295 -239 -341 -264 -163 -91 -288 -73
-415 60 -28 29 -250 305 -493 613 -244 308 -470 586 -504 618 -198 188 -440
162 -677 -73 -109 -108 -143 -173 -148 -281 -5 -95 13 -163 66 -244 35 -54
236 -309 935 -1188 130 -163 237 -301 237 -305 -1 -4 -127 -107 -282 -230
l-282 -223 -22 23 c-55 59 -1076 1354 -1133 1438 -221 327 -282 649 -181 947
58 170 144 298 314 469 261 260 540 426 806 479 92 18 244 18 336 -1z m-9926
-1369 c254 -36 597 -174 856 -346 126 -84 300 -252 352 -341 60 -102 85 -189
90 -319 4 -94 1 -130 -16 -197 -18 -69 -230 -588 -413 -1009 -171 -392 -399
-615 -722 -703 -227 -62 -546 -36 -872 72 -413 136 -687 364 -787 653 -91 266
-20 613 177 862 80 101 159 166 260 214 139 65 186 74 400 73 207 0 305 -15
558 -85 276 -77 293 -81 403 -86 87 -5 121 -2 161 11 49 16 99 59 123 104 16
33 14 122 -4 167 -72 172 -526 367 -701 300 -25 -9 -59 -28 -75 -42 l-29 -24
-322 135 c-177 74 -324 137 -327 140 -8 9 62 108 124 175 130 141 287 220 504
254 57 9 156 6 260 -8z m7640 -94 c401 -91 725 -444 960 -1045 27 -71 50 -131
50 -132 0 -1 -170 -70 -377 -153 -208 -82 -589 -233 -848 -336 -258 -103 -476
-190 -483 -194 -20 -11 99 -201 180 -287 133 -140 290 -190 470 -150 206 46
347 164 456 382 49 97 80 136 136 169 55 32 548 227 555 219 12 -12 13 -317 1
-395 -57 -391 -275 -675 -668 -869 -355 -175 -753 -221 -1052 -120 -329 111
-599 395 -803 844 -249 551 -285 1048 -101 1385 51 93 133 198 217 277 213
203 593 378 920 424 91 13 289 3 387 -19z m-1892 -628 c-95 -352 -791 -2909
-792 -2910 -1 -1 -130 -12 -286 -23 -157 -12 -327 -24 -379 -29 l-94 -7 -29
66 c-366 828 -1183 2706 -1179 2707 8 4 785 63 786 60 1 -1 163 -439 361 -974
197 -534 362 -969 365 -965 3 4 86 399 184 877 97 479 186 898 196 932 35 112
122 193 240 223 26 6 174 22 330 35 156 12 288 23 293 24 4 0 6 -7 4 -16z
m-3818 -1148 c613 -104 794 -136 797 -138 2 -3 -67 -411 -71 -414 -1 -1 -132
20 -292 47 -159 28 -446 77 -638 109 -192 33 -351 63 -354 66 -5 5 52 370 63
403 3 7 14 10 27 7 13 -2 223 -39 468 -80z"/>
<path d="M22743 24661 c-129 -47 -259 -148 -383 -298 -211 -255 -235 -460 -71
-616 31 -30 76 -64 100 -76 171 -88 414 26 643 299 89 107 153 224 169 313 21
117 -29 233 -136 319 -96 77 -212 98 -322 59z"/>
<path d="M25325 12559 c-198 -33 -337 -166 -400 -382 -35 -121 -13 -281 52
-382 99 -153 297 -302 552 -416 317 -141 547 -166 727 -78 153 75 275 275 276
454 0 169 -87 320 -264 458 -297 230 -717 384 -943 346z"/>
<path d="M9025 9660 c-69 -10 -129 -43 -189 -104 -76 -77 -101 -133 -101 -231
0 -71 4 -87 33 -141 64 -118 223 -253 361 -305 71 -27 217 -37 292 -19 136 31
244 100 428 271 l93 86 -134 71 c-74 39 -213 124 -308 188 -189 127 -268 168
-345 179 -28 4 -57 8 -65 9 -8 2 -38 0 -65 -4z"/>
<path d="M12549 7037 c-119 -41 -189 -120 -224 -252 -43 -167 19 -292 188
-375 255 -125 514 -101 693 63 77 70 137 167 214 345 l67 157 -166 12 c-178
12 -257 22 -419 53 -141 27 -268 26 -353 -3z"/>
<path d="M20340 7949 c-73 -8 -188 -50 -249 -88 -156 -100 -228 -258 -218
-471 5 -108 23 -213 35 -206 4 2 225 91 492 196 267 106 487 195 490 197 9 8
-42 91 -100 164 -128 160 -276 229 -450 208z"/>
</g>
</svg>
