<?xml version="1.0" standalone="no"?>
<!DOCTYPE svg PUBLIC "-//W3C//DTD SVG 20010904//EN"
 "http://www.w3.org/TR/2001/REC-SVG-20010904/DTD/svg10.dtd">
<svg version="1.0" xmlns="http://www.w3.org/2000/svg"
 width="3375.000000pt" height="3375.000000pt" viewBox="0 0 3375.000000 3375.000000"
 preserveAspectRatio="xMidYMid meet">

<g transform="translate(0.000000,3375.000000) scale(0.100000,-0.100000)"
fill="#000000" stroke="none">
<path d="M0 16875 l0 -16875 16875 0 16875 0 0 16875 0 16875 -16875 0 -16875
0 0 -16875z m17720 9377 c9 -4 65 -61 125 -127 60 -66 238 -255 395 -420 157
-165 470 -496 695 -735 386 -409 728 -770 959 -1010 56 -58 155 -161 221 -230
66 -69 167 -175 225 -235 429 -450 606 -635 1040 -1095 162 -171 631 -671 636
-679 2 -2 20 9 40 24 42 32 179 95 208 95 18 0 18 8 12 183 -8 209 -22 709
-36 1302 -6 226 -13 473 -15 550 -6 192 -23 881 -30 1210 -3 149 -8 376 -11
506 -4 129 -3 310 1 401 l7 166 730 -5 c401 -3 1564 -8 2583 -11 1019 -4 1857
-10 1860 -14 28 -28 -542 -591 -1370 -1353 -143 -132 -300 -278 -350 -325 -49
-48 -146 -138 -214 -201 -203 -186 -1210 -1141 -1516 -1439 -145 -140 -657
-630 -968 -924 l-177 -169 45 -48 c63 -67 103 -133 126 -209 l19 -65 118 2
c64 2 286 7 492 13 206 5 578 14 825 20 248 6 614 15 815 20 786 21 1613 33
1770 25 l165 -7 -2 -201 c-9 -746 -23 -2882 -23 -3423 0 -767 -10 -1518 -21
-1535 -15 -25 -225 168 -554 511 -167 173 -314 331 -760 815 -365 396 -1035
1112 -1465 1565 -91 96 -251 265 -356 375 -191 202 -386 406 -907 953 -159
166 -291 302 -293 302 -2 0 -28 -16 -57 -34 -66 -44 -182 -83 -274 -92 l-73
-7 0 -112 c0 -61 7 -341 15 -621 44 -1513 56 -1951 70 -2583 8 -382 12 -697 9
-700 -8 -8 -5021 -8 -5028 0 -17 17 24 66 164 197 84 79 333 315 553 524 221
210 478 454 572 543 230 217 367 347 515 491 111 107 379 364 1095 1048 121
116 276 265 345 331 190 183 328 314 797 758 l431 409 -28 61 c-33 75 -50 149
-50 224 l0 56 -307 -7 c-355 -8 -811 -20 -1618 -41 -778 -20 -2226 -47 -2232
-42 -7 8 -4 3912 3 4505 8 560 5 536 54 514z m-1890 -4762 c19 -6 12 -8 -31
-9 -111 -2 -197 -94 -187 -200 8 -79 50 -155 130 -236 84 -83 164 -126 327
-174 147 -44 280 -60 579 -71 147 -6 324 -17 394 -25 381 -44 674 -160 864
-342 58 -56 145 -166 165 -208 7 -13 4 -12 -8 5 -101 139 -230 247 -388 325
-249 123 -482 168 -960 185 -467 18 -633 48 -850 157 -196 99 -326 323 -271
468 37 94 147 153 236 125z m1335 -966 c105 -17 266 -69 357 -115 134 -67 268
-176 331 -269 30 -44 29 -43 -40 21 -131 123 -295 208 -498 259 -213 54 -377
62 -594 30 -243 -37 -387 -79 -481 -141 -129 -87 -152 -212 -55 -305 41 -40
115 -74 161 -74 34 0 73 21 80 42 3 11 8 17 11 15 10 -11 -19 -47 -49 -63 -24
-12 -48 -15 -95 -11 -170 13 -269 172 -203 325 56 130 241 227 533 278 207 36
360 38 542 8z m9007 -4069 c108 -212 328 -419 587 -549 89 -45 265 -106 411
-142 159 -38 321 -41 393 -5 131 64 144 212 28 325 -48 47 -108 59 -144 30
l-22 -18 22 23 c26 29 93 32 141 7 48 -25 110 -103 129 -163 14 -46 15 -61 5
-101 -20 -74 -60 -122 -137 -162 -61 -32 -76 -35 -169 -38 -128 -5 -241 14
-432 73 -238 74 -403 168 -566 323 -173 165 -289 359 -312 523 l-6 44 19 -50
c10 -27 34 -81 53 -120z m-295 123 c-3 -7 -5 -2 -5 12 0 14 2 19 5 13 2 -7 2
-19 0 -25z m82 -242 c49 -109 129 -217 250 -336 170 -168 333 -278 690 -464
286 -150 372 -205 510 -328 188 -169 268 -325 259 -512 -6 -154 -69 -227 -199
-234 -60 -4 -74 -1 -113 22 -25 14 -48 31 -52 37 -4 6 14 -1 40 -16 59 -35
126 -37 190 -5 87 42 121 147 93 285 -27 133 -64 194 -196 326 -138 138 -240
208 -501 344 -362 190 -540 307 -707 468 -106 102 -153 161 -221 274 -52 86
-109 242 -117 320 -5 41 -2 37 20 -35 14 -45 38 -111 54 -146z m-19448 -11
c101 -36 139 -112 139 -277 l0 -98 -250 0 -250 0 0 195 0 195 159 0 c117 0
170 -4 202 -15z m4586 0 c57 -24 100 -61 130 -113 27 -46 28 -51 33 -242 l5
-195 154 -3 154 -3 -7 -85 c-7 -98 -21 -136 -66 -188 -44 -50 -95 -74 -174
-82 l-66 -7 0 -541 c0 -297 5 -559 10 -580 5 -22 20 -51 34 -65 24 -24 34 -26
143 -31 l118 -5 3 -186 2 -186 -31 -7 c-49 -9 -415 -7 -499 4 -135 17 -223 84
-262 198 -10 29 -13 294 -16 1185 l-2 1147 150 0 c113 0 160 -4 187 -15z
m1024 5 c54 -15 100 -50 123 -95 17 -33 22 -62 24 -162 l4 -123 -251 0 -251 0
0 195 0 195 158 0 c86 0 173 -5 193 -10z m766 -5 c57 -24 100 -61 130 -113 27
-46 28 -51 33 -242 l5 -195 148 -3 147 -3 0 -85 c0 -96 -12 -133 -61 -189 -42
-47 -98 -73 -178 -81 l-61 -7 0 -541 c0 -298 5 -559 10 -580 5 -22 20 -51 34
-65 25 -24 33 -26 141 -30 l115 -3 0 -188 c0 -186 0 -188 -22 -194 -36 -9
-416 -6 -497 4 -154 20 -240 96 -270 238 -8 37 -11 382 -11 1172 l0 1120 150
0 c113 0 160 -4 187 -15z m2919 -7 c41 -23 91 -75 117 -123 20 -36 22 -58 25
-232 l4 -193 150 0 150 0 -4 -94 c-3 -83 -7 -100 -34 -142 -44 -71 -96 -104
-188 -117 l-76 -11 0 -558 c0 -623 -1 -616 64 -643 23 -10 70 -15 136 -15
l100 0 0 -190 0 -189 -36 -7 c-19 -3 -142 -4 -272 -1 -252 5 -304 13 -373 60
-46 31 -95 106 -108 167 -8 35 -11 406 -11 1181 l0 1131 163 -4 c128 -2 168
-7 193 -20z m-7801 -532 c321 -57 506 -223 587 -529 21 -80 22 -101 25 -775
l4 -694 -173 4 c-163 3 -176 4 -218 28 -24 14 -58 45 -75 68 l-30 44 -5 591
c-7 665 -5 655 -80 740 -52 59 -124 87 -240 94 -163 10 -275 -40 -327 -144
l-28 -58 -3 -682 -3 -683 -255 0 -255 0 3 693 c4 679 4 694 26 772 58 211 184
372 352 453 86 41 173 68 265 82 88 13 345 11 430 -4z m1955 -20 c281 -77 447
-237 505 -486 8 -36 15 -80 15 -97 l0 -33 -192 0 c-182 0 -196 2 -244 24 -53
24 -63 35 -115 119 -23 38 -42 54 -84 73 -140 64 -416 41 -468 -39 -52 -82 -6
-171 118 -228 33 -15 119 -41 190 -58 303 -72 354 -85 445 -118 246 -88 364
-204 406 -403 27 -129 3 -297 -59 -415 -124 -233 -410 -355 -833 -355 -333 0
-543 73 -698 241 -94 102 -156 262 -156 405 l0 44 254 0 255 0 11 -52 c32
-157 138 -226 360 -236 227 -9 350 49 354 168 2 107 -144 183 -481 250 -252
50 -367 93 -489 183 -157 116 -228 287 -204 494 32 282 239 476 575 538 57 10
131 13 260 11 156 -3 193 -7 275 -30z m7675 6 c335 -93 515 -305 591 -697 26
-128 26 -483 1 -610 -57 -293 -173 -482 -368 -600 -175 -107 -448 -149 -707
-110 -194 29 -338 98 -457 220 -82 83 -126 154 -171 273 -61 164 -91 391 -81
617 22 483 199 771 547 889 111 37 185 45 390 41 145 -2 200 -7 255 -23z
m-11078 -34 c25 -17 49 -45 64 -75 l24 -48 3 -912 2 -913 -250 0 -250 0 0 991
0 990 183 -3 c180 -3 184 -4 224 -30z m5598 13 c50 -22 91 -69 105 -119 6 -24
10 -350 10 -939 l0 -903 -250 0 -250 0 0 990 0 990 173 0 c145 0 178 -3 212
-19z m1905 -633 c0 -408 4 -677 11 -718 28 -177 148 -260 359 -248 102 6 171
33 223 86 75 77 71 44 77 747 6 676 4 661 58 719 53 57 90 66 275 66 l167 0 0
-673 c0 -574 -2 -687 -16 -768 -41 -237 -130 -372 -306 -460 -175 -88 -354
-125 -567 -116 -163 6 -258 29 -386 91 -176 85 -250 152 -311 281 -78 164 -84
235 -84 1002 l0 643 250 0 250 0 0 -652z m-2669 -1870 c65 -38 134 -119 158
-184 19 -50 21 -77 21 -294 l0 -240 200 0 200 0 0 -105 c0 -126 -20 -190 -82
-259 -59 -68 -124 -98 -228 -105 l-85 -6 0 -762 c0 -754 0 -762 21 -789 47
-64 62 -69 225 -72 l149 -3 0 -254 0 -253 -66 -7 c-91 -10 -576 1 -652 14
-142 26 -232 82 -285 180 -58 107 -57 52 -57 1679 l0 1493 218 -3 c216 -3 217
-3 263 -30z m13407 2 c72 -36 124 -92 161 -169 26 -55 26 -60 29 -303 l4 -248
200 0 201 0 -5 -112 c-3 -94 -8 -122 -30 -168 -56 -123 -147 -183 -285 -189
l-83 -3 0 -757 c0 -845 -3 -803 70 -846 29 -17 58 -21 180 -25 l145 -5 3 -252
2 -251 -76 -7 c-117 -11 -577 2 -665 18 -99 19 -166 54 -222 117 -56 62 -84
133 -97 248 -6 54 -10 634 -10 1535 l0 1447 208 0 209 0 61 -30z m-17667 -690
c405 -41 680 -214 834 -525 49 -100 105 -263 105 -307 0 -17 -18 -18 -357 -16
l-357 3 -23 40 c-33 60 -107 139 -155 168 -103 60 -264 78 -398 43 -259 -67
-394 -361 -377 -822 11 -279 75 -483 188 -596 127 -126 364 -169 548 -99 60
23 160 93 216 151 22 23 63 54 90 68 l50 27 292 3 292 3 -19 -65 c-64 -224
-159 -387 -306 -526 -133 -125 -283 -202 -479 -247 -94 -22 -137 -25 -290 -27
-322 -2 -525 46 -732 171 -91 55 -221 181 -283 272 -94 140 -171 344 -204 541
-85 510 -16 982 192 1299 47 73 171 197 247 248 234 158 574 228 926 193z
m2724 -15 c353 -63 565 -191 665 -400 66 -138 65 -128 65 -795 0 -581 -1 -609
-21 -700 -41 -182 -120 -341 -226 -456 -111 -120 -301 -230 -488 -282 -198
-55 -284 -66 -535 -67 -207 0 -239 2 -318 23 -258 65 -443 204 -542 406 -69
141 -80 193 -80 391 0 196 11 251 76 384 74 150 227 283 404 352 166 65 344
104 603 134 221 25 330 59 406 125 48 43 66 79 66 132 -1 67 -31 123 -87 158
-87 55 -138 65 -338 64 -164 0 -185 -2 -238 -23 -69 -27 -125 -73 -144 -118
l-13 -33 -331 0 -331 0 7 47 c4 26 20 85 35 131 103 303 349 482 738 537 129
19 501 13 627 -10z m3690 14 c227 -19 441 -81 574 -166 139 -89 243 -242 276
-405 22 -111 22 -1148 0 -1284 -55 -340 -240 -589 -540 -725 -93 -42 -275 -95
-400 -115 -137 -23 -486 -26 -580 -6 -301 66 -490 198 -598 417 -63 127 -80
206 -81 385 -1 177 17 267 79 390 138 274 417 411 980 480 315 38 448 94 491
206 27 71 5 145 -60 202 -58 50 -149 74 -308 80 -249 8 -374 -33 -429 -140
l-19 -38 -331 0 -330 0 7 38 c14 77 65 219 101 281 186 318 576 451 1168 400z
m6982 -5 c187 -27 351 -87 482 -177 75 -50 204 -187 255 -269 136 -221 206
-531 206 -915 l0 -173 -850 0 -850 0 0 -37 c0 -69 37 -218 72 -294 65 -139
174 -228 316 -258 66 -14 192 -14 252 0 79 17 201 85 280 155 129 113 109 109
448 112 160 2 292 1 292 -2 0 -3 -14 -45 -30 -95 -102 -305 -258 -502 -500
-634 -188 -103 -476 -153 -737 -128 -750 73 -1106 556 -1080 1469 21 743 334
1148 964 1246 122 19 353 19 480 0z m2733 -17 c145 -31 259 -75 352 -136 249
-165 378 -421 408 -811 5 -76 10 -478 10 -917 l0 -783 -185 0 c-101 0 -208 5
-237 11 -73 16 -139 51 -178 95 -68 79 -64 28 -70 884 -5 767 -6 776 -28 841
-39 116 -105 185 -221 231 -49 19 -76 22 -206 22 -123 1 -161 -3 -209 -18
-104 -34 -179 -107 -218 -211 l-23 -60 -3 -897 -3 -898 -334 0 -335 0 0 869
c0 814 1 876 19 983 78 456 334 714 796 802 122 24 136 24 350 21 164 -3 221
-8 315 -28z m3827 18 c516 -68 828 -390 928 -958 37 -205 38 -543 4 -769 -33
-223 -116 -441 -221 -583 -197 -266 -483 -397 -903 -412 -549 -20 -937 191
-1116 608 -79 183 -114 350 -130 626 -25 433 52 809 218 1060 156 237 422 390
748 432 114 14 345 12 472 -4z m-9801 -944 c145 -503 266 -916 268 -918 6 -6
-5 -43 260 892 234 823 233 821 321 883 75 54 88 56 414 60 291 3 303 3 297
-15 -15 -36 -926 -2615 -926 -2619 0 -2 -158 -3 -352 -2 l-352 3 -463 1315
c-254 723 -462 1316 -463 1318 0 1 165 1 366 0 l367 -3 263 -914z m-1318 -383
l-3 -193 -602 -3 -603 -2 0 195 0 195 605 0 605 0 -2 -192z m-10002 -2937 c45
-21 88 -70 99 -113 7 -26 5 -28 -22 -28 -24 0 -33 7 -46 35 -40 83 -165 101
-241 34 -95 -83 -86 -314 16 -377 81 -50 184 -31 223 41 15 29 26 37 48 37 25
0 27 -3 22 -22 -10 -35 -58 -91 -96 -113 -49 -29 -159 -27 -217 3 -172 91
-166 414 10 501 55 27 147 28 204 2z m772 -13 l3 -28 -140 0 -141 0 0 -85 0
-84 133 -3 132 -3 0 -25 0 -25 -132 -3 -133 -3 0 -99 0 -100 146 0 c145 0 145
0 142 -22 -3 -23 -5 -23 -175 -26 l-173 -2 0 270 0 270 168 -2 167 -3 3 -27z
m556 -196 l141 -224 3 227 2 226 28 -3 27 -3 3 -267 2 -268 -39 0 -40 0 -143
229 -143 229 -3 -229 -2 -229 -30 0 -30 0 0 263 c0 145 3 267 7 271 4 4 23 6
42 4 33 -3 39 -11 175 -226z m911 198 c0 -25 -2 -25 -87 -28 l-88 -3 0 -239 0
-240 -30 0 -30 0 0 240 0 240 -85 0 c-89 0 -105 8 -91 45 5 13 34 15 208 13
l203 -3 0 -25z m593 6 c46 -24 72 -71 72 -130 0 -44 -4 -53 -38 -85 l-38 -36
28 -23 c30 -25 35 -46 41 -164 l4 -78 -27 0 c-24 0 -28 5 -34 38 -3 20 -6 60
-6 89 0 28 -3 59 -6 68 -12 30 -60 45 -149 45 l-85 0 0 -120 0 -120 -25 0 -25
0 0 271 0 272 128 -5 c93 -3 136 -9 160 -22z m716 13 c56 -15 121 -85 140
-150 36 -121 12 -244 -62 -318 -77 -77 -176 -92 -273 -43 -189 95 -179 423 15
508 38 16 127 18 180 3z m1206 -16 c97 -43 144 -123 143 -243 -1 -120 -44
-199 -135 -244 -47 -24 -62 -26 -175 -26 l-123 0 0 271 0 272 123 -5 c93 -4
133 -10 167 -25z m820 -3 l0 -30 -140 0 -140 0 0 -85 0 -84 133 -3 132 -3 0
-25 0 -25 -132 -3 -133 -3 0 -99 0 -100 145 0 145 0 0 -25 0 -25 -175 0 -175
0 0 270 0 270 170 0 170 0 0 -30z m985 20 c120 -20 194 -105 203 -234 6 -100
-16 -165 -77 -226 -59 -58 -99 -70 -240 -70 l-111 0 0 270 0 270 83 0 c45 0
109 -5 142 -10z m883 -22 l3 -28 -140 0 -141 0 0 -85 0 -84 133 -3 132 -3 0
-25 0 -25 -132 -3 -133 -3 0 -99 0 -100 146 0 c145 0 145 0 142 -22 -3 -23 -5
-23 -175 -26 l-173 -2 0 270 0 270 168 -2 167 -3 3 -27z m586 12 c45 -22 71
-53 82 -94 6 -24 4 -26 -24 -26 -24 0 -32 6 -42 30 -17 40 -57 60 -120 60 -63
0 -100 -30 -100 -83 0 -47 30 -70 131 -101 58 -17 97 -36 125 -60 38 -33 39
-35 39 -101 0 -64 -1 -68 -37 -100 -88 -81 -251 -68 -314 24 -32 48 -32 81 1
81 18 0 28 -9 41 -36 21 -45 48 -62 106 -70 85 -12 148 26 148 89 0 62 -28 88
-125 118 -139 42 -175 73 -175 149 0 87 61 139 164 140 40 0 73 -7 100 -20z
m766 -10 l0 -30 -140 0 -140 0 0 -85 0 -85 135 0 135 0 0 -30 0 -30 -135 0
-135 0 0 -100 0 -100 145 0 145 0 0 -25 0 -25 -175 0 -175 0 0 263 c0 145 3
267 7 270 3 4 80 7 170 7 l163 0 0 -30z m556 -198 c78 -123 143 -225 145 -227
2 -2 4 99 4 223 l0 227 28 3 27 3 0 -270 0 -271 -38 0 -39 0 -144 231 -144
232 -3 -232 -2 -231 -25 0 -25 0 0 271 0 270 37 -3 c37 -3 39 -5 179 -226z
m601 133 c18 -49 56 -157 85 -238 l51 -148 64 173 c123 334 111 308 145 308
20 0 29 -4 26 -12 -3 -7 -49 -129 -103 -271 l-99 -258 -35 3 -35 3 -97 262
c-53 145 -94 265 -90 268 3 3 16 5 30 3 21 -3 29 -16 58 -93z m977 84 c56 -15
121 -85 140 -150 36 -121 12 -244 -62 -318 -77 -77 -176 -92 -273 -43 -189 95
-179 423 15 508 38 16 127 18 180 3z m554 -236 l2 -243 140 0 c78 0 140 -4
140 -9 0 -39 -8 -41 -176 -41 l-164 0 0 271 0 270 28 -3 27 -3 3 -242z m619
152 c18 -49 56 -157 85 -238 l51 -148 64 173 c123 334 111 308 145 308 20 0
29 -4 26 -12 -3 -7 -49 -129 -103 -271 l-99 -258 -35 3 -35 3 -97 262 c-53
145 -94 265 -90 268 3 3 16 5 30 3 21 -3 29 -16 58 -93z m731 -177 l2 -268
-30 0 -30 0 0 271 0 270 28 -3 27 -3 3 -267z m491 166 c23 -58 60 -159 83
-225 24 -65 45 -119 48 -119 3 0 44 100 91 223 l86 222 41 3 42 3 0 -270 0
-271 -32 0 -31 0 6 243 6 242 -28 -75 c-15 -41 -56 -151 -91 -243 -65 -167
-65 -168 -94 -165 -23 2 -32 10 -42 38 -7 19 -44 123 -83 230 l-70 195 -1
-232 0 -233 -25 0 -25 0 0 270 0 270 39 0 39 0 41 -106z m1099 74 l3 -28 -140
0 -141 0 0 -85 0 -84 133 -3 132 -3 0 -25 0 -25 -132 -3 -133 -3 0 -99 0 -100
146 0 c145 0 145 0 142 -22 -3 -23 -5 -23 -175 -26 l-173 -2 0 270 0 270 168
-2 167 -3 3 -27z m556 -196 l141 -224 3 227 2 226 28 -3 27 -3 3 -267 2 -268
-39 0 -40 0 -143 229 -143 229 -3 -229 -2 -229 -30 0 -30 0 0 263 c0 145 3
267 7 271 4 4 23 6 42 4 33 -3 39 -11 175 -226z m911 198 c0 -25 -2 -25 -87
-28 l-88 -3 0 -239 0 -240 -30 0 -30 0 0 240 0 240 -85 0 c-89 0 -105 8 -91
45 5 13 34 15 208 13 l203 -3 0 -25z m626 7 c53 -28 104 -92 120 -150 18 -68
13 -169 -12 -226 -90 -211 -380 -196 -449 23 -15 48 -16 148 -1 202 20 76 82
141 156 165 49 16 142 9 186 -14z m949 -247 l0 -270 -30 0 -30 0 0 263 c0 145
3 267 7 270 3 4 17 7 30 7 l23 0 0 -270z m586 42 c78 -123 143 -225 145 -227
2 -2 4 99 4 223 l0 227 28 3 27 3 0 -270 0 -271 -38 0 -39 0 -144 231 -144
232 -3 -232 -2 -231 -25 0 -25 0 0 271 0 270 37 -3 c37 -3 39 -5 179 -226z
m904 198 l0 -30 -140 0 -140 0 0 -90 0 -90 130 0 130 0 0 -25 0 -25 -130 0
-130 0 0 -125 0 -125 -25 0 -25 0 0 270 0 270 165 0 165 0 0 -30z m622 -234
c54 -143 98 -263 98 -268 0 -4 -13 -8 -29 -8 -26 0 -30 6 -60 85 l-33 85 -107
0 -108 0 -32 -85 c-31 -80 -34 -85 -61 -85 l-29 0 38 108 c91 253 151 414 157
423 3 6 20 9 37 7 30 -3 31 -5 129 -262z m634 36 c78 -123 143 -225 145 -227
2 -2 4 99 4 223 l0 227 28 3 27 3 0 -270 0 -271 -38 0 -39 0 -144 231 -144
232 -3 -232 -2 -231 -25 0 -25 0 0 271 0 270 37 -3 c37 -3 39 -5 179 -226z
m914 198 l0 -30 -90 0 -90 0 0 -240 0 -240 -30 0 -30 0 0 240 0 240 -85 0 -85
0 0 30 0 30 205 0 205 0 0 -30z m358 -242 l2 -268 -30 0 -30 0 0 271 0 270 28
-3 27 -3 3 -267z m422 27 l0 -245 140 0 140 0 0 -25 0 -25 -170 0 -170 0 0
263 c0 145 3 267 7 270 3 4 17 7 30 7 l23 0 0 -245z"/>
<path d="M17239 15347 c-194 -55 -282 -230 -282 -562 -1 -224 31 -359 108
-464 35 -47 57 -66 112 -93 62 -30 75 -33 163 -33 75 0 105 5 142 22 162 74
238 255 238 568 0 302 -73 481 -222 545 -64 28 -192 36 -259 17z"/>
<path d="M9815 11168 c-60 -22 -207 -64 -325 -94 -232 -58 -293 -82 -363 -144
-69 -61 -102 -136 -101 -230 0 -144 62 -248 172 -291 48 -19 76 -23 172 -22
98 0 128 4 200 28 190 62 303 183 355 380 23 86 34 415 14 414 -8 -1 -63 -19
-124 -41z"/>
<path d="M13750 11210 c-44 -24 -251 -88 -440 -136 -297 -75 -370 -115 -431
-240 -27 -55 -32 -75 -31 -137 1 -144 70 -254 183 -293 85 -30 259 -25 366 10
148 48 244 129 309 261 49 100 65 199 62 387 -3 136 -5 156 -18 148z"/>
<path d="M20109 11997 c-119 -40 -206 -123 -266 -254 -27 -59 -63 -183 -63
-220 l0 -23 491 0 491 0 -7 53 c-26 187 -125 356 -246 418 -108 55 -280 66
-400 26z"/>
<path d="M26705 11966 c-122 -30 -231 -123 -290 -248 -124 -262 -124 -756 -1
-1024 78 -169 225 -264 407 -264 318 0 483 205 521 651 14 163 1 365 -32 495
-56 222 -175 356 -348 393 -68 14 -192 13 -257 -3z"/>
<path d="M8560 8155 l0 -95 73 0 c128 0 177 27 177 96 0 75 -32 94 -160 94
l-90 0 0 -95z"/>
<path d="M9355 8246 c-101 -45 -141 -207 -81 -330 74 -151 268 -135 322 27 23
68 15 170 -17 228 -43 77 -143 111 -224 75z"/>
<path d="M10490 8035 l0 -215 80 0 c163 0 229 63 230 218 0 79 -18 128 -62
169 -36 33 -72 43 -164 43 l-84 0 0 -215z"/>
<path d="M12350 8035 l0 -215 78 0 c104 0 143 13 185 59 54 60 71 146 46 236
-27 99 -86 134 -221 135 l-88 0 0 -215z"/>
<path d="M16735 8246 c-101 -45 -141 -207 -81 -330 74 -151 268 -135 322 27
23 68 15 170 -17 228 -43 77 -143 111 -224 75z"/>
<path d="M22292 8244 c-65 -33 -102 -107 -102 -204 0 -155 103 -255 230 -220
90 24 136 110 128 237 -8 126 -64 194 -166 200 -39 3 -67 -2 -90 -13z"/>
<path d="M25366 8127 c-21 -62 -41 -118 -44 -124 -3 -10 18 -13 87 -13 50 0
91 2 91 5 0 9 -83 230 -89 237 -3 4 -24 -43 -45 -105z"/>
</g>
</svg>
